<svg width="277" height="77" viewBox="0 0 277 77" fill="none" xmlns="http://www.w3.org/2000/svg">
<g clip-path="url(#clip0_910_5968)">
<path d="M14.3905 -0.05896C14.2265 -0.0518484 14.063 -0.0359011 13.9007 -0.0111867C12.0975 0.133923 10.4054 0.916288 9.1283 2.1953C7.85122 3.47431 7.07298 5.16609 6.93344 6.96659C6.90592 7.13674 6.88993 7.30855 6.88559 7.48086V22.7937L0.974003 26.9276C0.687646 27.1282 0.453092 27.3938 0.289634 27.7026C0.126177 28.0113 0.038487 28.3544 0.0337793 28.7036C0.0248475 29.0539 0.101722 29.4011 0.257726 29.7151C0.41373 30.029 0.644146 30.3001 0.928962 30.505L5.3148 33.7424L0.999338 36.6847C0.704085 36.8873 0.462322 37.1582 0.294678 37.4743C0.127035 37.7905 0.0384889 38.1424 0.0365949 38.5001C0.0365949 38.5001 0.0365949 38.5001 0.0365949 38.5197C0.0365949 38.5394 0.0365949 38.5197 0.0365949 38.5366C0.0276632 38.8869 0.104538 39.2341 0.260542 39.548C0.416546 39.8619 0.646962 40.1331 0.931778 40.3379L5.31761 43.5753L0.999338 46.5232C0.704474 46.7256 0.462952 46.9961 0.295328 47.3117C0.127704 47.6273 0.0389418 47.9786 0.0365949 48.3358C0.0366921 48.6905 0.122458 49.04 0.286622 49.3545C0.450787 49.6691 0.688509 49.9395 0.979633 50.1428L6.89122 54.271V69.553C6.89399 69.6981 6.9081 69.8428 6.93344 69.9858C7.06794 71.8301 7.87721 73.5607 9.20715 74.8479C10.5371 76.1351 12.2948 76.8891 14.1456 76.9663C14.2469 76.9663 263.215 76.9129 263.277 76.9073C264.578 76.7871 265.824 76.3262 266.89 75.5713C267.955 74.8163 268.803 73.7941 269.346 72.6077L269.368 72.5683C269.464 72.3576 269.532 72.13 269.608 71.9079C269.702 71.6537 269.784 71.3948 269.853 71.1323C269.853 71.0705 269.872 71.0059 269.884 70.944C269.961 70.6212 270.016 70.2935 270.05 69.9633C270.072 69.8143 270.095 54.1361 270.095 54.1361L276.006 50.0023C276.292 49.8012 276.526 49.5355 276.69 49.2268C276.853 48.9182 276.941 48.5753 276.947 48.2262C276.956 47.8756 276.879 47.5281 276.722 47.214C276.565 46.9 276.334 46.6291 276.049 46.4249L271.663 43.1875L275.981 40.2452C276.276 40.0436 276.518 39.7737 276.686 39.4586C276.854 39.1435 276.944 38.7924 276.947 38.4354C276.947 38.4354 276.947 38.4354 276.947 38.4158C276.945 38.4102 276.945 38.4044 276.947 38.3989C276.956 38.0483 276.879 37.7007 276.722 37.3867C276.565 37.0727 276.334 36.8017 276.049 36.5975L271.663 33.3602L275.981 30.4179C276.276 30.2163 276.518 29.9464 276.686 29.6313C276.854 29.3161 276.944 28.9651 276.947 28.6081C276.946 28.2534 276.861 27.904 276.696 27.5894C276.532 27.2748 276.295 27.0044 276.003 26.8011L270.092 22.6729C270.092 22.6729 270.072 7.09305 270.047 6.96659C269.979 6.18316 269.789 5.4151 269.484 4.69031L269.459 4.61724C269.291 4.22031 269.089 3.83857 268.856 3.4763C268.847 3.45571 268.835 3.43596 268.822 3.41728C268.203 2.46472 267.373 1.66584 266.398 1.08147C265.422 0.497091 264.326 0.142614 263.192 0.0450179C263.15 0.0450179 263.111 0.0281566 263.068 0.0225361C262.925 -0.0364785 14.3905 -0.05896 14.3905 -0.05896Z" fill="#F04930"/>
<path d="M107.281 11.4122H106.352C106.15 11.4122 106.102 11.2998 106.102 11.1621V10.8642C106.102 10.7265 106.15 10.6141 106.352 10.6141H109.108C109.311 10.6141 109.359 10.7265 109.359 10.8642V11.1621C109.359 11.2998 109.311 11.4122 109.108 11.4122H108.179V14.8379C108.179 15.043 108.067 15.088 107.929 15.088H107.535C107.397 15.088 107.284 15.043 107.284 14.8379L107.281 11.4122Z" fill="white"/>
<path d="M109.787 10.6929C109.787 10.4905 109.896 10.4427 110.034 10.4427H110.397C110.535 10.4427 110.648 10.4905 110.648 10.6929V12.3987H110.662C110.753 12.2438 110.884 12.1164 111.042 12.0303C111.199 11.9442 111.378 11.9025 111.557 11.9097C111.705 11.8943 111.854 11.9112 111.995 11.9593C112.136 12.0075 112.264 12.0856 112.371 12.1884C112.478 12.2911 112.562 12.416 112.616 12.5542C112.67 12.6924 112.693 12.8408 112.683 12.9888V14.8379C112.683 15.0431 112.571 15.088 112.433 15.088H112.064C111.926 15.088 111.813 15.0431 111.813 14.8379V13.208C111.822 13.1307 111.814 13.0524 111.789 12.9785C111.764 12.9047 111.724 12.8372 111.67 12.7807C111.616 12.7243 111.551 12.6802 111.479 12.6515C111.406 12.6229 111.328 12.6105 111.25 12.615C110.899 12.615 110.662 12.8961 110.662 13.3317V14.8379C110.662 15.0431 110.549 15.088 110.412 15.088H110.048C109.91 15.088 109.801 15.0431 109.801 14.8379L109.787 10.6929Z" fill="white"/>
<path d="M115.09 11.9097C116.137 11.9097 116.669 12.5167 116.669 13.5227C116.673 13.5567 116.668 13.5909 116.656 13.6228C116.644 13.6548 116.625 13.6836 116.601 13.7072C116.576 13.7307 116.546 13.7484 116.514 13.7588C116.481 13.7692 116.447 13.7721 116.413 13.7672H114.291C114.293 13.8725 114.317 13.9761 114.362 14.0714C114.407 14.1667 114.471 14.2517 114.55 14.321C114.63 14.3902 114.723 14.4422 114.824 14.4736C114.924 14.5051 115.03 14.5152 115.135 14.5035C115.317 14.5123 115.497 14.4565 115.642 14.3461C115.69 14.2875 115.754 14.2433 115.826 14.2185C115.898 14.1937 115.976 14.1893 116.05 14.2056L116.36 14.2843C116.545 14.3321 116.545 14.4557 116.472 14.5653C116.208 14.9784 115.76 15.1695 115.096 15.1695C114.026 15.1695 113.407 14.5316 113.407 13.5508C113.407 12.5701 114.079 11.9097 115.09 11.9097ZM115.788 13.208C115.797 13.1167 115.786 13.0246 115.755 12.9381C115.725 12.8516 115.676 12.7727 115.612 12.707C115.548 12.6412 115.47 12.5901 115.385 12.5573C115.299 12.5244 115.207 12.5106 115.115 12.5167C115.015 12.5062 114.914 12.516 114.818 12.5454C114.722 12.5748 114.633 12.6231 114.556 12.6877C114.479 12.7522 114.416 12.8315 114.37 12.9209C114.325 13.0103 114.298 13.1079 114.291 13.208H115.788Z" fill="white"/>
<path d="M121.176 10.5299C122.105 10.5299 122.865 10.8587 123.147 11.7327C123.195 11.8591 123.181 11.9772 122.983 12.0137L122.494 12.1064C122.35 12.1317 122.271 12.039 122.212 11.9013C122.121 11.7116 121.973 11.5545 121.789 11.451C121.606 11.3475 121.395 11.3026 121.185 11.3224C120.413 11.3224 119.926 12.0193 119.926 12.8568C119.926 13.8038 120.441 14.3743 121.218 14.3743C121.405 14.382 121.591 14.3422 121.758 14.2586C121.924 14.1751 122.067 14.0505 122.173 13.8965C122.252 13.7588 122.325 13.6745 122.474 13.6942L123.017 13.7701C123.209 13.7982 123.217 13.9218 123.164 14.0511C122.806 14.8548 122.063 15.1949 121.173 15.1949C119.876 15.1949 118.947 14.3743 118.947 12.8736C118.95 11.5556 119.859 10.5299 121.176 10.5299Z" fill="white"/>
<path d="M123.797 10.6929C123.797 10.4905 123.91 10.4427 124.048 10.4427H124.425C124.563 10.4427 124.675 10.4905 124.675 10.6929V14.8379C124.675 15.0431 124.563 15.088 124.425 15.088H124.062C123.924 15.088 123.811 15.0431 123.811 14.8379L123.797 10.6929Z" fill="white"/>
<path d="M127.085 13.2333H127.42V13.1068C127.42 12.7387 127.271 12.5448 126.882 12.5448C126.797 12.5368 126.711 12.5472 126.63 12.5753C126.548 12.6034 126.474 12.6486 126.412 12.7078C126.288 12.8483 126.294 12.9382 126.103 12.9382H125.714C125.523 12.9382 125.492 12.8146 125.531 12.6881C125.655 12.2553 126.094 11.9181 126.939 11.9181C127.966 11.9181 128.248 12.393 128.248 13.104V14.6131C128.248 14.6918 128.248 14.7789 128.262 14.8632C128.276 14.9475 128.262 15.0936 128.051 15.0936H127.769C127.733 15.0996 127.697 15.0974 127.662 15.0874C127.627 15.0774 127.595 15.0597 127.568 15.0358C127.541 15.0118 127.52 14.9821 127.506 14.9488C127.492 14.9155 127.486 14.8796 127.488 14.8435L127.459 14.6862C127.361 14.8567 127.214 14.9942 127.037 15.0812C126.86 15.1682 126.661 15.2009 126.466 15.1751C125.973 15.1751 125.393 14.9335 125.393 14.214C125.393 13.4244 126.063 13.2333 127.085 13.2333ZM126.756 14.5541C126.844 14.562 126.932 14.5508 127.016 14.5212C127.099 14.4915 127.175 14.4442 127.238 14.3825C127.301 14.3208 127.35 14.2461 127.381 14.1637C127.413 14.0812 127.426 13.9929 127.42 13.9049V13.7335H127.178C126.73 13.7335 126.263 13.7981 126.263 14.1663C126.263 14.4641 126.466 14.5541 126.756 14.5541Z" fill="white"/>
<path d="M129.21 14.1803H129.585C129.776 14.1803 129.79 14.2674 129.908 14.4107C129.969 14.4664 130.041 14.5088 130.119 14.5349C130.197 14.5611 130.28 14.5705 130.362 14.5625C130.581 14.5625 130.877 14.5035 130.877 14.2393C130.877 13.6211 128.98 14.1887 129.044 12.9185C129.072 12.4436 129.407 11.9237 130.322 11.9237C131.015 11.9237 131.502 12.1541 131.648 12.6544C131.688 12.7808 131.662 12.8989 131.462 12.9129L131.088 12.9326C130.897 12.9326 130.911 12.8455 130.784 12.7078C130.721 12.651 130.647 12.6077 130.567 12.5806C130.486 12.5536 130.401 12.5433 130.317 12.5504C130.086 12.5504 129.863 12.6431 129.863 12.8314C129.863 13.489 131.761 12.9101 131.761 14.155C131.761 14.5541 131.479 15.192 130.331 15.192C129.683 15.192 129.185 15.0037 129.025 14.4557C129.013 14.4253 129.008 14.3925 129.012 14.3601C129.016 14.3277 129.027 14.2966 129.045 14.2696C129.064 14.2426 129.088 14.2203 129.117 14.2048C129.146 14.1892 129.178 14.1808 129.21 14.1803Z" fill="white"/>
<path d="M132.507 14.1803H132.881C133.073 14.1803 133.087 14.2674 133.205 14.4107C133.266 14.4664 133.338 14.5086 133.417 14.5347C133.495 14.5609 133.578 14.5703 133.661 14.5625C133.878 14.5625 134.173 14.5035 134.173 14.2393C134.173 13.6211 132.276 14.1887 132.343 12.9185C132.369 12.4436 132.704 11.9237 133.621 11.9237C134.311 11.9237 134.801 12.1541 134.945 12.6544C134.984 12.7808 134.945 12.8989 134.762 12.9129L134.384 12.9326C134.193 12.9326 134.207 12.8455 134.08 12.7078C134.017 12.651 133.943 12.6077 133.863 12.5806C133.783 12.5536 133.698 12.5433 133.613 12.5504C133.382 12.5504 133.16 12.6431 133.16 12.8314C133.16 13.489 135.057 12.9101 135.057 14.155C135.057 14.5541 134.776 15.192 133.627 15.192C132.982 15.192 132.481 15.0037 132.321 14.4557C132.309 14.4253 132.305 14.3925 132.309 14.3601C132.312 14.3277 132.324 14.2966 132.342 14.2696C132.36 14.2426 132.385 14.2203 132.413 14.2048C132.442 14.1892 132.474 14.1808 132.507 14.1803Z" fill="white"/>
<path d="M135.668 11.0413C135.663 10.9719 135.672 10.9022 135.695 10.8365C135.718 10.7708 135.754 10.7106 135.802 10.6595C135.849 10.6085 135.907 10.5678 135.971 10.54C136.035 10.5122 136.104 10.4978 136.173 10.4978C136.243 10.4978 136.312 10.5122 136.376 10.54C136.44 10.5678 136.497 10.6085 136.545 10.6595C136.592 10.7106 136.629 10.7708 136.652 10.8365C136.675 10.9022 136.684 10.9719 136.679 11.0413C136.675 11.174 136.622 11.3004 136.529 11.3953C136.436 11.4902 136.31 11.5464 136.178 11.5528C136.043 11.5506 135.914 11.4959 135.819 11.4004C135.724 11.3049 135.669 11.176 135.668 11.0413ZM135.741 12.2469C135.741 12.0418 135.854 11.9968 135.992 11.9968H136.355C136.493 11.9968 136.605 12.0418 136.605 12.2469V14.8379C136.605 15.0431 136.493 15.088 136.355 15.088H135.992C135.854 15.088 135.741 15.0431 135.741 14.8379V12.2469Z" fill="white"/>
<path d="M139.024 11.9097C139.708 11.9097 140.124 12.1402 140.366 12.5027C140.389 12.5258 140.406 12.5546 140.414 12.5863C140.421 12.6179 140.421 12.6511 140.411 12.6822C140.402 12.7134 140.384 12.7414 140.359 12.7632C140.335 12.7851 140.305 12.7999 140.273 12.8062L139.924 12.9383C139.781 12.9888 139.682 12.9186 139.575 12.7978C139.51 12.7257 139.429 12.669 139.339 12.6316C139.249 12.5942 139.152 12.5771 139.055 12.5814C138.463 12.5814 138.252 13.076 138.252 13.6071C138.252 14.1382 138.534 14.4755 139.043 14.4755C139.142 14.4812 139.24 14.4647 139.331 14.4272C139.422 14.3898 139.504 14.3323 139.57 14.2591C139.674 14.1467 139.767 14.0764 139.913 14.127L140.268 14.2591C140.298 14.2686 140.325 14.2853 140.346 14.3079C140.368 14.3304 140.384 14.3579 140.392 14.388C140.401 14.4182 140.401 14.4499 140.394 14.4803C140.387 14.5108 140.373 14.5391 140.352 14.5626C140.197 14.7661 139.993 14.9284 139.76 15.0352C139.527 15.142 139.271 15.1901 139.015 15.1752C137.869 15.1752 137.343 14.4979 137.343 13.5762C137.332 13.3535 137.368 13.1309 137.449 12.923C137.529 12.7151 137.653 12.5265 137.812 12.3693C137.97 12.2122 138.16 12.0901 138.369 12.0109C138.577 11.9317 138.801 11.8972 139.024 11.9097Z" fill="white"/>
<path d="M144.907 10.5299C145.836 10.5299 146.579 10.8587 146.878 11.7327C146.923 11.8591 146.909 11.9772 146.711 12.0137L146.224 12.1064C146.081 12.1317 145.999 12.039 145.943 11.9013C145.851 11.7119 145.703 11.555 145.52 11.4515C145.336 11.3481 145.125 11.303 144.915 11.3224C144.144 11.3224 143.657 12.0193 143.657 12.8568C143.657 13.8038 144.169 14.3743 144.949 14.3743C145.137 14.3832 145.324 14.3437 145.492 14.2595C145.66 14.1754 145.804 14.0494 145.909 13.8937C145.988 13.756 146.061 13.6717 146.213 13.6914L146.754 13.756C146.945 13.7841 146.951 13.9078 146.897 14.0371C146.543 14.8408 145.799 15.1808 144.91 15.1808C143.609 15.1808 142.68 14.3602 142.68 12.8596C142.677 11.5556 143.587 10.5299 144.907 10.5299Z" fill="white"/>
<path d="M147.562 12.2469C147.562 12.0417 147.671 11.9968 147.809 11.9968H148.139C148.279 11.9968 148.389 12.0417 148.389 12.2469V12.778C148.471 12.5147 148.63 12.2818 148.845 12.1092C148.975 11.9941 149.139 11.9241 149.313 11.9097C149.397 11.9097 149.456 11.9518 149.456 12.0614V12.5504C149.456 12.8314 149.127 12.6881 148.778 12.9495C148.662 13.0356 148.568 13.1481 148.504 13.2775C148.439 13.407 148.407 13.5498 148.409 13.6942V14.8379C148.409 15.0431 148.296 15.088 148.158 15.088H147.795C147.657 15.088 147.548 15.0431 147.548 14.8379L147.562 12.2469Z" fill="white"/>
<path d="M151.449 11.9097C152.648 11.9097 153.164 12.719 153.164 13.5368C153.169 13.7596 153.127 13.9811 153.042 14.1871C152.957 14.3931 152.829 14.5791 152.668 14.7332C152.507 14.8874 152.315 15.0063 152.105 15.0823C151.895 15.1584 151.672 15.19 151.449 15.1751C150.236 15.1751 149.743 14.3742 149.743 13.5452C149.739 13.3236 149.781 13.1036 149.867 12.8989C149.952 12.6943 150.079 12.5094 150.239 12.3558C150.399 12.2023 150.589 12.0834 150.797 12.0067C151.006 11.9299 151.227 11.8969 151.449 11.9097ZM151.449 14.4895C152.012 14.4895 152.274 14.096 152.274 13.5424C152.274 12.9888 152.023 12.5897 151.449 12.5897C150.875 12.5897 150.619 12.9888 150.619 13.5424C150.619 14.096 150.886 14.4895 151.449 14.4895Z" fill="white"/>
<path d="M153.983 14.1803H154.357C154.549 14.1803 154.563 14.2674 154.681 14.4107C154.741 14.4664 154.813 14.5088 154.891 14.5349C154.969 14.5611 155.052 14.5705 155.134 14.5625C155.351 14.5625 155.649 14.5035 155.649 14.2393C155.649 13.6211 153.752 14.1887 153.817 12.9185C153.842 12.4436 154.18 11.9237 155.095 11.9237C155.787 11.9237 156.274 12.1541 156.42 12.6544C156.46 12.7808 156.42 12.8989 156.235 12.9129L155.86 12.9326C155.669 12.9326 155.683 12.8455 155.556 12.7078C155.493 12.651 155.419 12.6077 155.339 12.5806C155.259 12.5536 155.174 12.5433 155.089 12.5504C154.858 12.5504 154.633 12.6431 154.633 12.8314C154.633 13.489 156.533 12.9101 156.533 14.155C156.533 14.5541 156.252 15.192 155.103 15.192C154.456 15.192 153.955 15.0037 153.797 14.4557C153.785 14.4253 153.781 14.3925 153.784 14.3601C153.788 14.3277 153.8 14.2966 153.818 14.2696C153.836 14.2426 153.861 14.2203 153.889 14.2048C153.918 14.1892 153.95 14.1808 153.983 14.1803Z" fill="white"/>
<path d="M157.265 14.1803H157.639C157.831 14.1803 157.845 14.2674 157.963 14.4107C158.024 14.4664 158.096 14.5088 158.174 14.5349C158.252 14.5611 158.334 14.5705 158.416 14.5625C158.636 14.5625 158.932 14.5035 158.932 14.2393C158.932 13.6211 157.034 14.1887 157.099 12.9185C157.127 12.4436 157.462 11.9237 158.377 11.9237C159.07 11.9237 159.557 12.1541 159.703 12.6544C159.742 12.7808 159.703 12.8989 159.517 12.9129L159.143 12.9326C158.951 12.9326 158.965 12.8455 158.839 12.7078C158.776 12.651 158.702 12.6077 158.621 12.5806C158.541 12.5536 158.456 12.5433 158.371 12.5504C158.141 12.5504 157.918 12.6431 157.918 12.8314C157.918 13.489 159.816 12.9101 159.816 14.155C159.816 14.5541 159.534 15.192 158.385 15.192C157.738 15.192 157.237 15.0037 157.079 14.4557C157.067 14.4253 157.063 14.3925 157.067 14.3601C157.071 14.3277 157.082 14.2966 157.1 14.2696C157.118 14.2426 157.143 14.2203 157.172 14.2048C157.2 14.1892 157.232 14.1808 157.265 14.1803Z" fill="white"/>
<path d="M160.215 12.2413C160.162 12.0558 160.269 11.9968 160.393 11.9968H160.882C161.026 11.9968 161.085 12.1008 161.119 12.2413L161.552 14.141H161.566L162.087 12.2413C162.127 12.0952 162.191 11.9968 162.338 11.9968H162.884C163.03 11.9968 163.095 12.0952 163.14 12.2413L163.703 14.141L164.139 12.2413C164.173 12.1008 164.232 11.9968 164.376 11.9968H164.818C164.942 11.9968 165.054 12.0558 164.995 12.2413L164.204 14.8436C164.185 14.9136 164.143 14.9754 164.085 15.0195C164.027 15.0636 163.956 15.0877 163.883 15.0881H163.467C163.394 15.0874 163.325 15.0631 163.268 15.0189C163.211 14.9748 163.17 14.9132 163.151 14.8436L162.625 12.9439H162.611L162.048 14.8436C162.028 14.9138 161.985 14.9757 161.927 15.0198C161.868 15.0639 161.797 15.0878 161.724 15.0881H161.33C161.257 15.0874 161.186 15.0632 161.128 15.0192C161.069 14.9752 161.027 14.9136 161.006 14.8436L160.215 12.2413Z" fill="white"/>
<path d="M167.154 11.9097C168.354 11.9097 168.866 12.719 168.866 13.5368C168.87 13.7587 168.828 13.979 168.742 14.1837C168.656 14.3885 168.529 14.5733 168.368 14.7265C168.207 14.8797 168.016 14.9979 167.808 15.0737C167.599 15.1494 167.376 15.1811 167.154 15.1667C165.941 15.1667 165.446 14.3658 165.446 13.5368C165.443 13.3157 165.487 13.0966 165.573 12.8929C165.659 12.6892 165.786 12.5054 165.946 12.3528C166.106 12.2003 166.296 12.0822 166.504 12.0059C166.712 11.9297 166.933 11.8969 167.154 11.9097ZM167.154 14.4894C167.717 14.4894 167.976 14.096 167.976 13.5424C167.976 12.9888 167.726 12.5897 167.154 12.5897C166.583 12.5897 166.324 12.9888 166.324 13.5424C166.324 14.096 166.58 14.4894 167.154 14.4894Z" fill="white"/>
<path d="M169.637 12.247C169.637 12.0418 169.75 11.9969 169.888 11.9969H170.217C170.355 11.9969 170.468 12.0418 170.468 12.247V12.7781C170.549 12.5148 170.708 12.2818 170.924 12.1093C171.054 11.9952 171.218 11.9253 171.391 11.9097C171.411 11.9073 171.432 11.9096 171.451 11.9165C171.47 11.9234 171.488 11.9346 171.502 11.9493C171.516 11.964 171.527 11.9818 171.533 12.0012C171.539 12.0207 171.54 12.0413 171.537 12.0615V12.5505C171.537 12.8315 171.208 12.6882 170.859 12.9495C170.742 13.0351 170.647 13.1473 170.583 13.2769C170.518 13.4064 170.485 13.5495 170.487 13.6942V14.838C170.487 15.0431 170.377 15.0881 170.237 15.0881H169.888C169.75 15.0881 169.637 15.0431 169.637 14.838V12.247Z" fill="white"/>
<path d="M173.266 11.9097C173.46 11.9024 173.653 11.9454 173.825 12.0345C173.998 12.1236 174.145 12.2559 174.251 12.4183V10.6929C174.251 10.4905 174.364 10.4427 174.502 10.4427H174.865C175.003 10.4427 175.115 10.4905 175.115 10.6929V14.8379C175.115 15.0431 175.003 15.088 174.865 15.088H174.535C174.395 15.088 174.285 15.0431 174.285 14.8379V14.6553C174.175 14.8202 174.026 14.9546 173.85 15.0455C173.674 15.1365 173.478 15.1811 173.28 15.1752C172.418 15.1752 171.83 14.3995 171.83 13.5396C171.83 12.6797 172.371 11.9097 173.266 11.9097ZM173.525 14.4754C174.012 14.4754 174.296 14.0623 174.296 13.548C174.296 13.0815 174.037 12.6488 173.491 12.6488C172.995 12.6488 172.734 13.0872 172.734 13.5565C172.734 14.0258 173.015 14.4754 173.525 14.4754Z" fill="white"/>
<path d="M179.783 10.5299C181.041 10.5299 181.503 11.1538 181.719 11.6343C181.778 11.7467 181.767 11.8648 181.576 11.8901L181.08 11.9575C180.923 11.9772 180.864 11.8844 180.771 11.7524C180.657 11.602 180.506 11.4836 180.333 11.4088C180.16 11.3339 179.97 11.3051 179.783 11.3252C179.084 11.3252 178.53 11.9041 178.53 12.8511C178.53 13.6605 179.039 14.3771 179.842 14.3771C180.644 14.3771 180.942 13.9696 180.968 13.4694H180.163C179.96 13.4694 179.912 13.357 179.912 13.2193V12.9888C179.912 12.8511 179.96 12.7387 180.163 12.7387H181.739C181.803 12.7417 181.864 12.7694 181.908 12.816C181.952 12.8627 181.976 12.9247 181.975 12.9888C181.897 14.4305 181.131 15.1724 179.794 15.1724C178.457 15.1724 177.612 14.0483 177.612 12.8511C177.612 11.654 178.474 10.5299 179.783 10.5299Z" fill="white"/>
<path d="M184.216 13.2333H184.551V13.1068C184.551 12.7387 184.402 12.5448 184.011 12.5448C183.926 12.537 183.84 12.5475 183.759 12.5756C183.679 12.6037 183.605 12.6488 183.543 12.7078C183.42 12.8483 183.425 12.9382 183.234 12.9382H182.845C182.654 12.9382 182.623 12.8146 182.662 12.6881C182.786 12.2553 183.225 11.9181 184.07 11.9181C185.1 11.9181 185.382 12.393 185.382 13.104V14.6131C185.382 14.6918 185.382 14.7789 185.396 14.8632C185.41 14.9475 185.396 15.0936 185.185 15.0936H184.903C184.868 15.099 184.831 15.0965 184.797 15.0863C184.762 15.0761 184.73 15.0584 184.704 15.0345C184.677 15.0107 184.655 14.9812 184.641 14.9482C184.627 14.9151 184.62 14.8794 184.622 14.8435L184.596 14.6862H184.582C184.485 14.8557 184.339 14.9927 184.164 15.0797C183.988 15.1667 183.791 15.1999 183.597 15.1751C183.101 15.1751 182.522 14.9335 182.522 14.214C182.522 13.4244 183.194 13.2333 184.216 13.2333ZM183.887 14.5541C183.975 14.562 184.064 14.5508 184.147 14.5212C184.23 14.4915 184.306 14.4442 184.369 14.3825C184.432 14.3208 184.481 14.2461 184.513 14.1637C184.544 14.0812 184.557 13.9929 184.551 13.9049V13.7335H184.309C183.862 13.7335 183.391 13.7981 183.391 14.1663C183.391 14.4641 183.597 14.5541 183.887 14.5541Z" fill="white"/>
<path d="M186.305 12.2469C186.305 12.0418 186.415 11.9968 186.556 11.9968H186.876C187.014 11.9968 187.127 12.0418 187.127 12.2469V12.3987C187.238 12.2427 187.385 12.1164 187.557 12.0311C187.728 11.9458 187.918 11.9041 188.109 11.9097C188.286 11.9033 188.461 11.9445 188.616 12.0291C188.771 12.1137 188.901 12.2384 188.991 12.3902C189.11 12.2335 189.265 12.108 189.444 12.0243C189.622 11.9406 189.818 11.9013 190.015 11.9097C190.536 11.9097 191.071 12.2188 191.071 12.8651V14.8323C191.071 15.0374 190.958 15.0824 190.82 15.0824H190.457C190.319 15.0824 190.207 15.0374 190.207 14.8323V13.0956C190.212 13.0318 190.204 12.9677 190.182 12.9075C190.16 12.8473 190.126 12.7925 190.081 12.7469C190.036 12.7013 189.982 12.6658 189.922 12.6431C189.862 12.6203 189.798 12.6108 189.734 12.615C189.58 12.6133 189.431 12.6706 189.317 12.7751C189.204 12.8797 189.136 13.0235 189.126 13.1771V14.8379C189.126 15.0431 189.016 15.088 188.878 15.088H188.506C188.368 15.088 188.259 15.0431 188.259 14.8379V13.1799C188.269 13.1073 188.263 13.0334 188.241 12.9635C188.219 12.8936 188.181 12.8295 188.132 12.7757C188.082 12.7219 188.021 12.6798 187.953 12.6525C187.884 12.6253 187.811 12.6134 187.738 12.6179C187.584 12.623 187.438 12.6889 187.332 12.8011C187.227 12.9132 187.17 13.0626 187.175 13.2164V14.8379C187.175 15.0431 187.065 15.088 186.924 15.088H186.564C186.423 15.088 186.313 15.0431 186.313 14.8379L186.305 12.2469Z" fill="white"/>
<path d="M193.472 11.9097C194.519 11.9097 195.054 12.5167 195.054 13.5227C195.058 13.5566 195.054 13.5909 195.042 13.623C195.031 13.655 195.012 13.6841 194.988 13.7079C194.963 13.7317 194.934 13.7497 194.901 13.7605C194.869 13.7712 194.835 13.7745 194.801 13.77H192.684C192.706 13.916 192.765 14.054 192.855 14.1708C192.946 14.2875 193.065 14.3793 193.201 14.4373C193.337 14.4953 193.485 14.5177 193.632 14.5022C193.779 14.4867 193.92 14.434 194.041 14.3489C194.089 14.2905 194.153 14.2466 194.225 14.2218C194.297 14.197 194.375 14.1924 194.449 14.2084L194.759 14.2871C194.944 14.3349 194.944 14.4585 194.871 14.5681C194.609 14.9812 194.159 15.1723 193.495 15.1723C192.428 15.1723 191.806 14.5344 191.806 13.5536C191.806 12.5729 192.464 11.9097 193.472 11.9097ZM194.17 13.208C194.179 13.1167 194.168 13.0246 194.137 12.9381C194.107 12.8516 194.058 12.7727 193.994 12.707C193.93 12.6412 193.852 12.5901 193.767 12.5573C193.681 12.5244 193.589 12.5106 193.497 12.5167C193.398 12.5078 193.298 12.5188 193.203 12.5488C193.108 12.5789 193.02 12.6275 192.944 12.6918C192.868 12.7562 192.806 12.8349 192.761 12.9235C192.716 13.0121 192.688 13.1088 192.681 13.208H194.17Z" fill="white"/>
<path d="M258.468 26.6971C258.461 26.7886 258.475 26.8806 258.509 26.9657C258.544 27.0507 258.599 27.1262 258.668 27.1861C258.753 27.2529 258.858 27.2895 258.967 27.29C259.023 27.2932 259.079 27.2845 259.131 27.2647C259.183 27.2448 259.231 27.2142 259.271 27.1748C259.322 27.1186 259.361 27.0527 259.386 26.9809C259.409 27.0323 259.443 27.0783 259.485 27.1158C259.557 27.1781 259.651 27.2103 259.747 27.2057C259.834 27.2084 259.92 27.1828 259.991 27.1327C260.054 27.0822 260.103 27.017 260.134 26.9429C260.165 26.8688 260.177 26.7882 260.169 26.7083V25.9664H258.48L258.468 26.6971ZM259.451 26.2053H259.977V26.6156C259.981 26.6929 259.97 26.7703 259.944 26.8432C259.926 26.8867 259.895 26.9234 259.855 26.9477C259.815 26.972 259.768 26.9827 259.721 26.9781C259.675 26.9819 259.628 26.9719 259.587 26.9494C259.546 26.9269 259.512 26.893 259.49 26.8517C259.461 26.7795 259.448 26.7018 259.451 26.624V26.2053ZM258.666 26.2053H259.265V26.6634C259.268 26.7427 259.256 26.822 259.229 26.8966C259.21 26.9475 259.175 26.991 259.129 27.0204C259.083 27.0498 259.029 27.0636 258.975 27.0596C258.909 27.0635 258.843 27.0435 258.789 27.0034C258.746 26.9671 258.712 26.9208 258.69 26.8684C258.669 26.816 258.66 26.7591 258.666 26.7027V26.2053Z" fill="white"/>
<path d="M258.469 27.9139H259.2V28.4169C259.205 28.4851 259.193 28.5534 259.167 28.6165C259.145 28.655 259.112 28.6866 259.073 28.7075C259.033 28.7284 258.989 28.7377 258.944 28.7345L258.663 28.7485H258.528L258.471 28.7682V29.0492H258.511C258.521 29.0295 258.536 29.0124 258.554 28.9992C258.572 28.9861 258.593 28.9772 258.615 28.9734C258.664 28.9687 258.713 28.9687 258.761 28.9734H258.987C259.063 28.9755 259.138 28.956 259.203 28.9171C259.251 28.8779 259.287 28.8264 259.307 28.7682C259.344 28.8432 259.402 28.9058 259.474 28.9483C259.546 28.9907 259.629 29.0112 259.713 29.0071C259.796 29.0142 259.879 28.9956 259.951 28.9539C260.023 28.9121 260.08 28.8493 260.115 28.7738C260.156 28.6749 260.175 28.5687 260.172 28.4619V27.6947H258.483L258.469 27.9139ZM259.389 27.9139H259.972V28.4535C259.973 28.516 259.962 28.5782 259.938 28.6361C259.914 28.679 259.877 28.7139 259.833 28.7363C259.789 28.7588 259.739 28.7679 259.69 28.7626C259.647 28.768 259.603 28.7626 259.562 28.747C259.521 28.7313 259.485 28.7057 259.457 28.6727C259.408 28.5995 259.385 28.5129 259.389 28.4254V27.9139Z" fill="white"/>
<path d="M258.469 29.5606L258.978 29.7433V30.4065L258.469 30.5807V30.8309L260.158 30.2182V29.9625L258.469 29.3274V29.5606ZM259.167 29.8107L259.918 30.0918L259.167 30.3503V29.8107Z" fill="white"/>
<path d="M258.469 31.3704H259.842L258.469 32.2247V32.4805H260.169V32.2641H258.795L260.169 31.4238V31.1541H258.469V31.3704Z" fill="white"/>
<path d="M258.469 33.6495C258.462 33.7779 258.495 33.9051 258.565 34.0131C258.635 34.1211 258.737 34.2043 258.857 34.2509C259.011 34.3203 259.178 34.3548 259.347 34.3521C259.548 34.3584 259.746 34.2992 259.91 34.1835C259.991 34.1216 260.056 34.041 260.099 33.9484C260.143 33.8559 260.163 33.7543 260.158 33.6524V32.9779H258.469V33.6495ZM258.666 33.2083H259.972V33.6046C259.979 33.6792 259.966 33.7542 259.936 33.8226C259.905 33.891 259.857 33.9504 259.797 33.9952C259.651 34.0854 259.48 34.1285 259.308 34.1189C259.247 34.1184 259.187 34.1128 259.127 34.102C259.034 34.0875 258.944 34.0551 258.863 34.0064C258.783 33.9563 258.723 33.8812 258.691 33.7929C258.673 33.7328 258.664 33.6702 258.666 33.6074V33.2083Z" fill="white"/>
<path d="M259.98 23.929C259.98 23.8868 259.98 23.8447 259.98 23.8082V23.6845C259.976 23.5922 259.945 23.5032 259.89 23.4288C259.856 23.3844 259.814 23.3471 259.766 23.3191C259.717 23.2911 259.664 23.273 259.609 23.2658C259.694 23.256 259.776 23.2292 259.851 23.1871C259.905 23.1521 259.95 23.1031 259.979 23.0453C260.008 22.9875 260.021 22.9229 260.017 22.8583C260.024 22.7693 260.003 22.6802 259.956 22.6043C259.909 22.5284 259.838 22.4697 259.755 22.4368C259.608 22.3899 259.453 22.3699 259.299 22.3778H258.702V24.0386H258.984V23.3838H259.217C259.329 23.3766 259.441 23.3949 259.544 23.4372C259.601 23.4808 259.646 23.539 259.674 23.6056C259.702 23.6723 259.711 23.7451 259.702 23.8166V23.9487V24.0021C259.701 24.0086 259.701 24.0152 259.702 24.0217C259.7 24.0273 259.7 24.0331 259.702 24.0386H259.983V24.0161C259.98 23.9872 259.979 23.9581 259.98 23.929ZM259.544 23.1421C259.453 23.1712 259.358 23.1836 259.262 23.1787H258.998V22.5773H259.248C259.371 22.5702 259.493 22.5913 259.606 22.6391C259.646 22.6709 259.676 22.7122 259.696 22.7593C259.715 22.8063 259.722 22.8575 259.715 22.9079C259.709 22.9583 259.69 23.0062 259.66 23.0472C259.63 23.0882 259.59 23.1209 259.544 23.1421Z" fill="white"/>
<path d="M259.316 21.7061C259.117 21.7028 258.919 21.74 258.735 21.8153C258.55 21.8907 258.383 22.0027 258.243 22.1445C258.102 22.285 257.99 22.4519 257.914 22.6356C257.838 22.8193 257.798 23.0163 257.798 23.2152C257.798 23.4142 257.838 23.6111 257.914 23.7949C257.99 23.9786 258.102 24.1455 258.243 24.2859C258.379 24.4463 258.547 24.5769 258.736 24.6693C258.926 24.7616 259.132 24.8139 259.342 24.8227C259.553 24.8314 259.762 24.7966 259.959 24.7203C260.155 24.644 260.333 24.5279 260.482 24.3794C260.631 24.2309 260.748 24.0531 260.824 23.8574C260.901 23.6616 260.936 23.4521 260.928 23.2421C260.919 23.0321 260.867 22.8261 260.775 22.6372C260.682 22.4483 260.552 22.2805 260.391 22.1445C260.251 22.0031 260.083 21.8914 259.898 21.8161C259.714 21.7408 259.516 21.7034 259.316 21.7061ZM260.245 24.1398C260.031 24.3536 259.749 24.4868 259.448 24.5167C259.147 24.5465 258.845 24.4713 258.593 24.3037C258.341 24.1361 258.155 23.8866 258.067 23.5975C257.978 23.3085 257.993 22.9978 258.109 22.7184C258.224 22.439 258.433 22.2082 258.699 22.0652C258.966 21.9221 259.274 21.8758 259.571 21.9341C259.868 21.9923 260.136 22.1515 260.328 22.3846C260.521 22.6177 260.627 22.9102 260.628 23.2124C260.631 23.3849 260.598 23.5562 260.533 23.7157C260.467 23.8752 260.369 24.0195 260.245 24.1398Z" fill="white"/>
<path d="M34.1014 45.4356L37.5244 45.3372C38.6674 45.2866 39.0136 46.0285 39.4105 47.1189C40.255 49.4486 42.3382 50.2411 45.218 50.2411C49.0408 50.2411 51.3716 49.1507 51.3716 46.1775C51.3716 43.4544 48.8381 42.4624 44.0272 41.1191C37.2289 39.2362 33.7523 37.1061 33.7523 31.3592C33.7523 25.8596 38.1691 21.0035 46.161 21.0035C53.1986 21.0035 56.9792 24.2241 57.8237 28.386C58.0236 29.378 57.773 30.2688 56.2867 30.3194L53.0578 30.4684C51.8192 30.5161 51.3688 29.7742 50.727 28.6839C49.981 27.3968 48.4947 26.6043 45.9611 26.6043C42.7858 26.6043 40.652 27.8914 40.652 30.5161C40.652 33.1915 42.4874 34.0851 47.3518 35.3722C53.8038 37.0583 58.17 39.3852 58.17 45.489C58.17 51.8794 53.3084 55.9908 45.2208 55.9908C36.8826 55.9908 33.5074 52.0284 32.5531 47.3718C32.3729 46.3686 32.6122 45.4862 34.1014 45.4356Z" fill="white"/>
<path d="M78.6156 21.0092C85.6138 21.0092 91.2242 23.4878 93.5044 30.0777C93.8534 31.0192 93.7549 31.91 92.2658 32.2079L88.5921 32.902C87.4999 33.0987 86.9031 32.4046 86.4077 31.3648C84.9692 28.2932 82.1851 27.0033 78.6663 27.0033C72.8589 27.0033 69.188 32.2556 69.188 38.5477C69.188 45.6829 73.0587 49.9937 78.914 49.9937C81.7938 49.9937 84.5216 48.9034 86.1599 46.377C86.7567 45.3372 87.3028 44.6909 88.4429 44.8398L92.5135 45.3372C93.952 45.5339 94.0026 46.4613 93.6057 47.369C90.9258 53.411 85.3182 55.9879 78.6156 55.9879C68.839 55.9879 61.8408 49.8055 61.8408 38.5C61.8408 28.7401 68.687 21.0092 78.6156 21.0092Z" fill="white"/>
<path d="M97.6228 23.5356C97.6228 22.0012 98.4673 21.6555 99.5089 21.6555H110.229C117.325 21.6555 121.345 26.1519 121.345 31.7105C121.345 35.2289 119.411 39.8376 115.093 41.1247L122.04 53.7089C122.182 53.9336 122.267 54.189 122.288 54.4536C122.288 54.8976 121.942 55.3444 120.948 55.3444H116.233C115.107 55.3444 114.544 54.6503 114.051 53.6583L108.292 42.0633H104.373V53.4588C104.373 54.996 103.529 55.3416 102.487 55.3416H99.5089C98.4673 55.3416 97.6228 54.996 97.6228 53.4588V23.5356ZM108.838 36.5665C113.455 36.5665 114.645 34.1385 114.645 31.9606C114.645 29.5326 113.404 27.4024 108.641 27.4024H104.373V36.5665H108.838Z" fill="white"/>
<path d="M134.812 23.4372C135.011 22.9234 135.358 22.48 135.808 22.1629C136.259 21.8457 136.794 21.6692 137.346 21.6555H140.673C141.219 21.6637 141.75 21.8389 142.194 22.1575C142.637 22.476 142.972 22.9227 143.153 23.4372L153.673 53.5599C154.118 54.8976 153.375 55.3444 152.432 55.3444H148.313C147.221 55.3444 146.675 54.6025 146.326 53.5599L144.637 48.3076H132.814L131.226 53.5122C130.877 54.6025 130.334 55.3444 129.255 55.3444H125.283C124.34 55.3444 123.547 54.8976 124.042 53.5599L134.812 23.4372ZM143.15 42.8586L138.832 29.7883H138.782L134.511 42.867L143.15 42.8586Z" fill="white"/>
<path d="M156.181 23.5356C156.181 22.0012 157.026 21.6555 158.067 21.6555H168.142C175.338 21.6555 179.062 25.2695 179.062 30.8196C179.062 34.5347 176.976 36.6171 174.544 37.7553V37.8564C177.522 38.5477 180.154 41.2737 180.154 45.4862C180.154 51.6687 175.388 55.3444 168.441 55.3444H158.067C157.026 55.3444 156.181 54.9988 156.181 53.4616V23.5356ZM166.999 35.5268C170.178 35.5268 172.311 34.1385 172.311 31.3648C172.311 28.5911 170.327 27.4024 167.596 27.4024H162.932V35.5268H166.999ZM167.349 49.5975C171.571 49.5975 173.156 47.7147 173.156 45.3372C173.156 43.1565 171.816 40.9758 167.895 40.9758H162.932V49.5975H167.349Z" fill="white"/>
<path d="M184.568 23.5356C184.568 22.0012 185.413 21.6555 186.454 21.6555H196.529C203.724 21.6555 207.446 25.2695 207.446 30.8196C207.446 34.5347 205.363 36.6171 202.942 37.7553V37.8564C205.92 38.5477 208.549 41.2737 208.549 45.4862C208.549 51.6687 203.786 55.3444 196.839 55.3444H186.454C185.413 55.3444 184.568 54.9988 184.568 53.4616V23.5356ZM195.386 35.5268C198.564 35.5268 200.698 34.1385 200.698 31.3648C200.698 28.5911 198.711 27.4024 195.983 27.4024H191.319V35.5268H195.386ZM195.735 49.5975C199.958 49.5975 201.54 47.7147 201.54 45.3372C201.54 43.1565 200.2 40.9758 196.281 40.9758H191.319V49.5975H195.735Z" fill="white"/>
<path d="M212.952 23.5356C212.952 22.0012 213.797 21.6555 214.838 21.6555H217.817C218.858 21.6555 219.703 22.0012 219.703 23.5356V49.0523H230.771C232.308 49.0523 232.657 49.8954 232.657 50.9352V53.4644C232.657 54.5042 232.308 55.3472 230.771 55.3472H214.838C213.797 55.3472 212.952 55.0016 212.952 53.4644V23.5356Z" fill="white"/>
<path d="M236.376 23.5356C236.376 22.0012 237.221 21.6555 238.262 21.6555H254.939C256.476 21.6555 256.825 22.4986 256.825 23.5356V25.7669C256.825 26.8066 256.476 27.6497 254.939 27.6497H243.115V35.3272H254.53C256.067 35.3272 256.416 36.1703 256.416 37.2101V39.4414C256.416 40.4812 256.067 41.3242 254.53 41.3242H243.127V49.3502H254.95C256.487 49.3502 256.836 50.1933 256.836 51.2331V53.4616C256.836 54.5014 256.487 55.3444 254.95 55.3444H238.262C237.221 55.3444 236.376 54.9988 236.376 53.4616V23.5356Z" fill="white"/>
<path d="M69.4132 58.4356C69.411 60.4622 68.6035 62.4051 67.1681 63.8382C65.7326 65.2712 63.7864 66.0772 61.7563 66.0794H27.9758C25.9455 66.0772 23.9989 65.2712 22.563 63.8383C21.1271 62.4054 20.3191 60.4625 20.3161 58.4356V19.278C20.3191 17.2512 21.1271 15.3083 22.563 13.8754C23.9989 12.4424 25.9455 11.6365 27.9758 11.6342H61.7563C63.7864 11.6365 65.7326 12.4425 67.1681 13.8755C68.6035 15.3085 69.411 17.2515 69.4132 19.278V21.1918C70.1658 20.7779 70.9465 20.4173 71.7497 20.1127V19.2696C71.746 16.6249 70.6919 14.0895 68.8186 12.2194C66.9453 10.3493 64.4056 9.29705 61.7563 9.29333H27.9758C25.3263 9.29631 22.7862 10.3483 20.9127 12.2186C19.0392 14.0889 17.9854 16.6247 17.9824 19.2696V58.4356C17.9854 61.0806 19.0392 63.6164 20.9127 65.4866C22.7862 67.3569 25.3263 68.4089 27.9758 68.4119H61.7563C64.4056 68.4082 66.9453 67.3559 68.8186 65.4858C70.6919 63.6157 71.746 61.0804 71.7497 58.4356V57.0755C70.9498 56.8078 70.1691 56.4857 69.4132 56.1116V58.4356Z" fill="white"/>
<path d="M60.0138 57.4662C59.6704 57.6376 59.403 57.7472 59.2622 57.8287C59.2622 57.8287 58.7527 58.1322 58.5894 57.7753C58.5049 57.6421 58.4725 57.4824 58.4984 57.3269C58.5244 57.1713 58.6069 57.0308 58.7302 56.9322C58.8452 56.8427 58.9734 56.7716 59.1102 56.7214C60.7429 55.9318 61.3453 55.4512 61.199 57.927C61.199 57.927 61.2159 60.2005 61.1708 61.333C61.1539 61.7293 61.2862 62.4121 60.6219 62.4121C59.9125 62.4121 60.0335 61.7911 60.0251 61.3752C59.9913 60.1246 60.0251 58.8741 60.0251 57.4577" fill="white"/>
</g>
<defs>
<clipPath id="clip0_910_5968">
<rect width="277" height="77" fill="white"/>
</clipPath>
</defs>
</svg>
